HIERARCHY
ROOT Hips
{
	OFFSET -10.056300 7.733760 -472.550000
	CHANNELS 6 Xposition Yposition Zposition Zrotation Yrotation Xrotation 
	JOINT Spine
	{
		OFFSET 0.000000 0.000000 0.000000
		CHANNELS 3 Zrotation Yrotation Xrotation
		JOINT Spine1
		{
			OFFSET 19.000000 0.000000 0.000000
			CHANNELS 3 Zrotation Yrotation Xrotation
			JOINT Neck
			{
				OFFSET 22.500000 0.600000 0.000000
				CHANNELS 3 Zrotation Yrotation Xrotation
				JOINT Head
				{
					OFFSET 14.000000 0.030878 0.000000
					CHANNELS 3 Zrotation Yrotation Xrotation
					End Site
					{
						OFFSET 17.000000 0.000000 0.000000
					}
				}
			}
			JOINT LeftShoulder
			{
				OFFSET 19.800000 3.700000 4.300000
				CHANNELS 3 Zrotation Yrotation Xrotation
				JOINT LeftArm
				{
					OFFSET 8.000000 0.000000 0.000000
					CHANNELS 3 Zrotation Yrotation Xrotation
					JOINT LeftForeArm
					{
						OFFSET 15.200000 0.000000 0.000000
						CHANNELS 3 Zrotation Yrotation Xrotation
						JOINT LeftHand
						{
							OFFSET 17.800000 0.000000 0.000000
							CHANNELS 3 Zrotation Yrotation Xrotation
							End Site
							{
								OFFSET 7.200000 0.000000 0.000000
							}
						}
					}
				}
			}
			JOINT RightShoulder
			{
				OFFSET 19.800000 3.700000 -4.300000
				CHANNELS 3 Zrotation Yrotation Xrotation
				JOINT RightArm
				{
					OFFSET 8.000000 0.000000 0.151654
					CHANNELS 3 Zrotation Yrotation Xrotation
					JOINT RightForeArm
					{
						OFFSET 15.200000 0.000000 0.000000
						CHANNELS 3 Zrotation Yrotation Xrotation
						JOINT RightHand
						{
							OFFSET 17.800000 0.000000 0.000000
							CHANNELS 3 Zrotation Yrotation Xrotation
							End Site
							{
								OFFSET 7.200000 0.000000 0.000000
							}
						}
					}
				}
			}
		}
	}
	JOINT LeftUpLeg
	{
		OFFSET 5.984250 -7.666000 4.788790
		CHANNELS 3 Zrotation Yrotation Xrotation
		JOINT LeftLeg
		{
			OFFSET 16.000000 0.000000 0.000000
			CHANNELS 3 Zrotation Yrotation Xrotation
			JOINT LeftFoot
			{
				OFFSET 18.000000 0.000000 0.000000
				CHANNELS 3 Zrotation Yrotation Xrotation
				End Site
				{
					OFFSET 0.000000 -10.800000 0.000000
				}
			}
		}
	}
	JOINT RightUpLeg
	{
		OFFSET 5.984250 -7.665980 -4.788790
		CHANNELS 3 Zrotation Yrotation Xrotation
		JOINT RightLeg
		{
			OFFSET 16.000000 0.000000 0.000000
			CHANNELS 3 Zrotation Yrotation Xrotation
			JOINT RightFoot
			{
				OFFSET 18.000000 0.000000 0.000000
				CHANNELS 3 Zrotation Yrotation Xrotation
				End Site
				{
					OFFSET 0.000000 -10.800000 0.000000
				}
			}
		}
	}
	JOINT Tail
	{
		OFFSET 6.836960 -0.722574 0.000000
		CHANNELS 3 Zrotation Yrotation Xrotation
		JOINT Tail1
		{
			OFFSET 12.000000 0.000000 0.000000
			CHANNELS 3 Zrotation Yrotation Xrotation
			End Site
			{
				OFFSET 12.000000 0.000000 0.000000
			}
		}
	}
}
MOTION
Frames: 17
Frame Time: 0.033333
1.514140 0.421700 2.843000 -172.134232 69.043243 -171.678497 -173.738617 -10.610319 -2.146294 -2.760342 13.662860 -3.539995 -6.625018 1.703136 -2.172460 11.389975 5.412216 92.453339 32.222534 -31.713093 -127.321236 -58.964180 -59.589062 -179.122009 -65.222878 6.260032 -6.010641 -0.430266 -9.301425 1.229022 62.856644 34.278465 -27.291260 84.013855 -20.925087 -57.617348 -63.904156 0.701728 -17.901188 -12.683929 4.439440 0.009935 -132.035553 -10.358331 -9.943336 83.381241 8.018654 23.267061 32.974838 -7.620508 -4.357458 -112.575577 -1.286391 -5.038672 98.068085 -2.177812 -0.418180 40.289433 -2.171321 -0.423322 -11.794321 22.021305 23.599203 9.759513 3.100085 -29.520264 
3.184550 0.859200 5.641000 -174.441650 65.535057 -172.707733 -174.085556 -8.378449 -1.512405 -1.572820 14.879855 -3.370933 -8.125228 1.031548 -1.014634 11.640779 4.671754 92.715248 31.117022 -31.942137 -126.351974 -73.597015 -53.972668 -160.573822 -69.229645 7.074275 -0.153087 -6.667281 -10.504786 1.292374 63.708096 34.519402 -26.587030 83.421997 -20.922735 -58.545303 -59.510384 1.666696 -19.944393 -13.665796 2.335725 0.701765 -129.476044 -9.909511 -8.048150 84.943672 6.653841 23.617334 33.396755 -8.088691 -4.591838 -121.500961 -2.378192 -1.999903 102.245430 -2.766672 -0.506359 32.898220 -2.247507 -0.841989 -13.993595 28.117441 29.298861 8.161901 6.535020 -38.669815 
4.919356 1.253100 8.389000 -174.974243 61.884087 -171.852676 -173.414413 -5.022265 -0.463512 -1.128396 14.468512 -2.627342 -8.738802 0.896013 -0.986222 12.369601 4.508344 92.631523 31.126503 -31.989538 -126.354492 -80.050316 -52.300297 -150.420212 -69.677711 5.360241 3.854069 -9.569160 -13.153619 1.953204 62.807228 35.436039 -27.357634 82.749374 -21.078827 -61.773991 -54.082100 2.094838 -17.571722 -12.044948 3.359879 0.398434 -125.780251 -9.263575 -5.658249 85.473328 4.916604 23.999725 34.509541 -8.432805 -4.794626 -130.073441 -1.317616 1.976623 102.571587 -3.584761 -1.944045 28.675329 -2.109401 -0.965216 -14.031630 32.403175 32.738235 6.491573 9.330518 -44.554031 
6.575020 1.544500 11.136000 -174.286179 58.178108 -169.535934 -171.201965 -0.763330 0.748280 -2.606092 12.652946 -1.830775 -7.310844 1.126096 -1.241640 13.138272 4.022468 92.143242 32.793022 -31.949612 -127.779251 -88.006660 -48.592728 -139.971039 -70.386887 3.440125 8.755851 -14.437939 -14.915734 2.685199 60.264397 35.508316 -29.487442 84.824654 -20.811337 -63.751324 -52.589180 1.800259 -13.697190 -6.424165 -0.847345 1.124743 -120.785690 -10.038178 -3.216987 85.404274 3.606995 24.345842 35.190598 -8.821094 -5.014541 -135.996948 1.194766 6.448117 97.605621 -5.380397 -5.438041 30.155844 -1.514817 -0.599386 -11.995961 33.720325 30.007246 5.859331 11.759093 -42.787949 
8.050990 1.622900 13.827999 -173.085220 54.844742 -167.338242 -169.033630 3.780270 2.082172 -3.537960 9.752388 -0.786889 -5.436537 1.914697 -1.720951 13.931527 3.125253 91.137405 36.968361 -31.299067 -131.388245 -91.985329 -45.898144 -135.719345 -69.880615 2.278721 11.832690 -18.846296 -16.055111 3.421501 55.779316 36.051682 -33.271168 88.823265 -21.857193 -60.654980 -64.233963 -0.159170 -0.225255 13.665828 -12.537149 -0.283910 -114.687218 -11.080585 -1.330640 84.118355 2.646920 25.188643 36.608543 -9.180886 -5.271204 -139.707245 3.288193 8.680520 89.188499 -7.510032 -5.772614 36.411465 -1.336442 -0.195718 -7.504356 32.073242 17.584272 8.632321 13.500098 -28.492861 
9.150950 1.482600 16.365999 -171.964493 52.732124 -165.769089 -167.949158 7.058465 2.812170 -3.588772 6.760922 -0.079098 -2.815747 2.546359 -1.382816 13.548709 2.397723 90.855820 41.394108 -30.835144 -135.149780 -92.240120 -41.648262 -134.083893 -69.107841 2.270083 12.897096 -21.400232 -17.122463 4.024081 52.430481 36.673084 -36.124802 79.131996 -21.945389 -61.765430 -75.692078 -3.115678 2.096130 32.018177 -31.857634 -5.124504 -108.716156 -12.652864 -0.355325 82.430923 2.092805 25.527746 37.875389 -9.159463 -5.284225 -142.239456 4.251726 8.350904 79.957649 -9.496644 -5.432703 42.992748 -1.196710 0.332548 -2.671222 28.438667 2.768531 13.717801 13.771245 -10.588641 
9.955971 1.325600 18.729000 -169.895370 51.184643 -164.732727 -168.220993 9.311000 2.883948 -1.454055 4.603248 0.130148 -0.555806 2.448648 -1.291419 11.996777 2.826580 91.138008 44.124611 -30.099710 -137.490219 -92.133110 -39.859184 -133.142258 -66.642136 2.072271 13.441455 -22.591516 -16.992279 4.176114 48.094578 35.953678 -39.746159 71.121712 -26.880354 -52.123802 -86.729355 -6.831065 -2.087767 34.172771 -49.438713 -7.861553 -102.348747 -13.528296 -0.449896 80.399727 1.810653 26.841072 40.148163 -9.081365 -5.347116 -143.415298 5.079455 6.273916 72.898773 -10.364820 -6.538732 47.890350 -0.897687 0.909045 2.711203 22.813225 -6.212842 18.285917 12.530382 1.989117 
10.755521 1.304900 21.157000 -166.940094 50.269115 -163.776855 -167.712677 11.544183 3.076779 -0.684287 1.223820 0.518671 2.437704 3.229436 -2.616588 10.014792 3.436307 90.393166 48.493210 -28.537437 -141.219482 -90.474220 -38.060730 -133.806351 -63.781418 1.837167 14.583061 -23.262869 -15.708405 3.839916 45.685741 36.316010 -41.813618 66.444695 -36.041550 -39.629440 -93.004883 -9.067527 5.589902 27.711271 -36.011887 -3.825621 -95.950745 -14.516098 -1.778595 78.395721 2.268560 27.485254 43.354694 -8.972631 -5.411191 -142.923325 4.651764 4.413757 68.659477 -9.365413 -4.680302 53.242577 -1.311861 0.834820 7.197467 15.633691 -7.722764 19.906422 11.640018 5.948440 
11.666981 1.326200 23.851999 -164.368225 50.838985 -163.454254 -167.530518 13.388831 2.970700 -0.043464 -3.454384 0.900703 3.971850 4.652478 -4.763090 8.949811 4.286674 89.252144 52.709091 -27.368433 -144.742950 -87.339500 -36.328106 -133.692291 -60.250053 1.500285 14.578206 -23.165182 -15.121217 3.745592 44.174664 35.580273 -43.038624 58.621166 -43.955494 -23.737362 -88.575081 -11.667927 3.705473 10.682614 -20.590054 1.630885 -90.083832 -14.356285 -4.418283 75.718079 3.215770 26.163612 48.555153 -8.510364 -5.269341 -138.676117 2.754162 3.219843 63.831139 -7.319863 -1.391734 58.420502 -1.824135 0.552523 8.127416 8.664727 -1.881248 17.462988 11.278934 0.676341 
12.857581 1.400000 26.709999 -164.342346 53.252716 -165.603348 -169.524490 13.297237 2.452829 1.111530 -7.510112 1.318966 3.400753 6.535118 -7.412481 8.789235 6.008969 88.524178 56.781708 -25.665598 -148.127686 -84.488899 -35.505024 -133.676407 -56.440125 0.716905 15.341130 -22.628754 -14.217079 3.425990 42.666191 35.407894 -44.304668 48.441959 -46.965275 -14.832112 -76.378166 -9.643972 -4.100739 -2.621021 -4.718511 1.776723 -87.240837 -11.993228 -7.068870 73.211723 4.166902 22.463305 54.640507 -7.865740 -4.940093 -134.763779 1.739368 3.035250 65.312592 -6.234503 0.490735 48.439137 -1.911400 -0.013094 3.629795 2.638860 9.489566 12.451056 10.493299 -10.114832 
14.320081 1.689000 29.699999 -165.952271 55.569168 -169.488464 -171.574570 13.125384 1.595523 1.913577 -11.173338 1.290046 0.695612 8.940203 -9.631304 10.013337 6.601017 87.467613 60.122826 -24.605253 -150.852722 -83.014809 -34.469841 -131.995209 -53.346542 -0.379503 16.796379 -21.298338 -12.661673 2.730510 41.230309 37.022457 -45.668919 40.459839 -52.465233 -4.925666 -67.456329 -6.723724 -10.109957 -6.139093 -5.461966 2.086950 -88.011597 -7.340939 -7.862739 74.022629 3.198043 18.489836 57.670017 -7.061668 -4.338865 -134.377182 5.487832 3.600595 69.734367 -7.932339 -1.991048 44.264973 -1.289412 0.378932 -5.094464 -3.318465 24.125420 8.237820 9.026680 -22.224026 
16.133310 1.978400 32.872997 -168.588120 58.219860 -171.891830 -171.817978 13.347041 1.269073 0.393727 -16.456829 2.090580 -2.075020 11.588260 -10.760061 11.068851 7.370626 87.718819 62.209415 -25.214514 -152.508347 -83.103577 -32.102299 -129.179337 -51.405300 -1.387543 16.535784 -17.842932 -10.511110 1.837586 40.599693 38.285374 -46.322598 42.418346 -52.740616 -10.451786 -59.906078 -0.357449 -10.215199 -2.167746 -2.119148 0.685131 -94.161041 -5.864509 -8.572632 79.094368 2.136945 10.539311 59.119671 -5.988138 -3.357692 -134.059082 4.363456 3.255015 73.392876 -6.746229 -2.796699 43.616974 -1.199563 0.449912 -14.365537 -7.995417 33.984020 5.795546 7.712892 -30.000019 
18.061010 2.119100 36.121998 -172.033752 61.032291 -174.101471 -172.470596 11.593761 0.608905 -0.405887 -18.797440 2.369803 -5.513091 13.207302 -10.371338 12.222030 7.177155 88.614899 60.752960 -26.790884 -151.292618 -84.418663 -30.864813 -124.572578 -47.486664 -1.838358 15.478166 -14.407423 -8.889160 1.161644 40.019875 37.829132 -46.779675 51.184765 -47.173737 -25.210199 -62.606400 -2.725869 -17.592154 -12.446075 0.984595 1.066107 -102.451149 -5.094901 -7.875984 84.719521 1.203713 11.415852 51.087772 -5.797762 -3.218672 -132.792145 3.388670 3.157496 75.952118 -6.225736 -5.266426 43.167130 -0.777804 0.815002 -20.776278 -11.884711 37.437397 5.138922 6.907212 -31.751486 
20.014511 2.260000 39.280998 -174.837387 64.254845 -174.919174 -171.771240 7.034089 0.030453 -3.394696 -17.687460 2.765621 -6.731658 14.117565 -9.039987 12.925868 6.963029 90.048782 58.020748 -27.614328 -149.050873 -88.873856 -29.987688 -122.387337 -46.543888 -2.470789 9.408846 -4.860644 -1.723741 -0.331973 41.948853 37.150570 -45.065464 64.296997 -43.649384 -38.817081 -68.608810 -0.839831 -14.596102 -9.694775 7.323977 -0.682089 -113.142708 -6.019003 -6.516901 93.306473 0.487540 13.958914 40.869751 -5.850332 -3.219989 -130.742111 1.580201 2.966519 78.317009 -5.563066 -6.988397 42.778591 -0.455967 1.143696 -22.813942 -14.482572 34.978661 5.529469 6.153076 -29.465616 
21.782110 2.262500 42.257999 -175.673370 67.284805 -174.127472 -170.069611 0.859934 -0.508652 -6.422047 -13.291623 2.664587 -7.239606 13.285398 -8.227923 14.119070 7.812304 91.509415 53.538689 -28.886641 -145.336945 -95.075272 -33.139366 -127.591507 -56.882050 0.630406 -33.411987 30.256588 -13.033144 2.568066 45.019184 36.420155 -42.387875 74.502876 -41.099270 -46.698864 -71.952362 -0.364966 -17.393661 -12.783295 8.523062 -0.987678 -123.934845 -8.382469 -5.499550 97.833374 0.534204 12.883068 35.297539 -5.193120 -2.785723 -126.219673 0.062327 2.111021 78.473450 -4.746104 -10.281133 42.847343 0.248172 1.741846 -20.801062 -15.659150 29.123089 6.859964 5.004617 -24.933601 
23.420710 2.236800 44.906998 -174.869385 70.621902 -171.945877 -169.143463 -6.037251 -1.250265 -7.992655 -8.595520 2.212766 -6.454368 12.837949 -7.826328 12.348314 8.147051 92.238174 48.418259 -29.839113 -141.067474 -91.555557 -34.157421 -126.439445 -69.779411 4.289641 -73.156708 41.811974 -49.685162 -5.683435 48.426003 35.437096 -39.431053 79.738808 -35.868298 -51.253925 -74.179993 -0.711713 -18.004034 -14.386965 9.247137 -1.193198 -134.062515 -12.043501 -4.093314 96.782753 1.750268 11.657814 32.637779 -4.523592 -2.401114 -122.374092 -0.632831 0.913859 79.814453 -4.088273 -11.675725 42.881153 0.579691 2.119438 -16.432161 -15.214010 21.379032 9.018051 3.775200 -19.545729 
25.055109 2.111700 47.272999 -169.696167 72.563499 -166.637863 -167.489532 -10.743541 -2.495296 -8.285491 -5.222917 1.136851 -5.676743 12.490746 -7.355587 10.488682 8.703528 93.085793 41.247833 -30.713150 -135.038345 -88.021965 -37.554302 -134.743881 -88.793221 12.781532 -97.085579 21.196117 -65.321785 2.908307 52.077061 34.374020 -36.294945 81.775925 -31.828882 -53.339104 -75.087532 -1.024009 -18.653687 -14.982182 8.704052 -1.016093 -140.822952 -15.221392 -1.443417 89.360001 3.977074 12.748513 35.776463 -4.488695 -2.372320 -116.101883 -0.165187 -1.767627 79.335037 -3.247260 -15.555104 42.667492 1.237992 2.622502 -10.522465 -14.658868 14.723859 11.780480 2.666857 -14.391220 
